<?xml version="1.0" encoding="utf-8"?>
<!-- Generated by IcoMoon.io -->
<!DOCTYPE svg PUBLIC "-//W3C//DTD SVG 1.1//EN" "http://www.w3.org/Graphics/SVG/1.1/DTD/svg11.dtd">
<svg version="1.1" xmlns="http://www.w3.org/2000/svg" xmlns:xlink="http://www.w3.org/1999/xlink" width="768" height="768" viewBox="0 0 768 768"><g id="icomoon-ignore">
</g>
<path d="M113.6 593.12l45.28 45.28 57.44-57.44-45.28-45.28-57.44 57.44zM352 718.4h64v-94.4h-64v94.4zM128 336h-96v64h96v-64zM480 201.92v-153.92h-192v153.92c-57.28 33.28-96 95.040-96 166.080 0 106.080 85.92 192 192 192s192-85.92 192-192c0-71.040-38.72-132.96-96-166.080zM640 336v64h96v-64h-96zM551.84 580.96l57.44 57.44 45.28-45.28-57.44-57.44-45.28 45.28z" fill="rgb(68, 68, 68)"></path>
</svg>
