<?xml version="1.0" encoding="utf-8"?>
<!-- Generated by IcoMoon.io -->
<!DOCTYPE svg PUBLIC "-//W3C//DTD SVG 1.1//EN" "http://www.w3.org/Graphics/SVG/1.1/DTD/svg11.dtd">
<svg version="1.1" xmlns="http://www.w3.org/2000/svg" xmlns:xlink="http://www.w3.org/1999/xlink" width="768" height="768" viewBox="0 0 768 768"><g id="icomoon-ignore">
</g>
<path d="M608 96h-133.92c-13.12-37.12-48.32-64-90.080-64s-76.96 26.88-90.080 64h-133.92c-35.36 0-64 28.64-64 64v448c0 35.36 28.64 64 64 64h448c35.36 0 64-28.64 64-64v-448c0-35.36-28.64-64-64-64zM384 96c17.6 0 32 14.24 32 32s-14.4 32-32 32-32-14.24-32-32 14.4-32 32-32zM448 544h-224v-64h224v64zM544 416h-320v-64h320v64zM544 288h-320v-64h320v64z" fill="rgb(68, 68, 68)"></path>
</svg>
