<?xml version="1.0" encoding="utf-8"?>
<!-- Generated by IcoMoon.io -->
<!DOCTYPE svg PUBLIC "-//W3C//DTD SVG 1.1//EN" "http://www.w3.org/Graphics/SVG/1.1/DTD/svg11.dtd">
<svg version="1.1" xmlns="http://www.w3.org/2000/svg" xmlns:xlink="http://www.w3.org/1999/xlink" width="768" height="768" viewBox="0 0 768 768"><g id="icomoon-ignore">
</g>
<path d="M384 192c0-17.6-14.4-32-32-32h-165.92l21.28-101.6c0.48-2.4 0.8-4.96 0.8-7.52 0-9.92-4-18.88-10.56-25.44l-25.44-25.44-158.080 158.080c-8.64 8.64-14.080 20.64-14.080 33.92v208c0 26.56 21.44 48 48 48h216c19.84 0 36.96-12 44.16-29.28l72.48-169.28c2.080-5.44 3.36-11.2 3.36-17.44v-40zM720 320h-216c-19.84 0-36.96 12-44.16 29.28l-72.48 169.28c-2.080 5.44-3.36 11.2-3.36 17.44v40c0 17.6 14.4 32 32 32h165.92l-21.28 101.6c-0.48 2.4-0.8 4.96-0.8 7.52 0 9.92 4 18.88 10.56 25.44l25.44 25.44 158.080-158.080c8.64-8.64 14.080-20.64 14.080-33.92v-208c0-26.56-21.44-48-48-48z" fill="rgb(68, 68, 68)"></path>
</svg>
